<?xml version="1.0" encoding="UTF-8"?>
<!DOCTYPE svg PUBLIC "-//W3C//DTD SVG 1.1//EN" "http://www.w3.org/Graphics/SVG/1.1/DTD/svg11.dtd">
<svg xmlns="http://www.w3.org/2000/svg" xmlns:xlink="http://www.w3.org/1999/xlink" version="1.1" width="341px" height="226px" viewBox="-0.5 -0.5 341 226" content="&lt;mxfile host=&quot;app.diagrams.net&quot; modified=&quot;2020-03-22T04:43:40.996Z&quot; agent=&quot;Mozilla/5.0 (Macintosh; Intel Mac OS X 10_15_3) AppleWebKit/537.36 (KHTML, like Gecko) Chrome/80.0.3987.149 Safari/537.36&quot; version=&quot;12.8.8&quot; etag=&quot;eoLBA8CTQaNtsQimQsnA&quot; type=&quot;google&quot;&gt;&lt;diagram id=&quot;QGMZsP1GCL7hAoCnIpqy&quot;&gt;jZNNb4MwDIZ/DdcKyD56XWm3HTZpUg87p+CSaEmMgtvS/fqZkhRQVWkcwHlsJ/Frk4jCdm9eNuoTKzBJnlZdItZJnj8vn/jdg/MAHpbZAGqvqwFNwFb/QoBpoAddQTsLJERDupnDEp2DkmZMeo+nedgezfzURtZwA7alNLf0W1ekBrp8TEf+DrpW8eQsDR4rY3AArZIVniZIbBJReEQaLNsVYHrtoi5D3usd7/ViHhz9JyEfEo7SHEJt4V50jsXyFZvetF3dN3PR6tq1C4JSLazUJhErRZY/64zNvTamQIP+kivSVPDDvCWPPxA9Dh3vuDqCJ82qfsgdmC9sNWl07N4hEdpJwIvhM9lB2DCVYVVyjcDbrUINHAzdXR2yq7o8lYAWyJ85JCTksXdhImN/TmN7xUNgatJaTgxjFUaqvm49qs5GED4uxwZffJO/RGz+AA==&lt;/diagram&gt;&lt;/mxfile&gt;"><defs/><g><path d="M 339.97 225 L 0 225 L 0 0 L 340 0 L 340 225 L 339.97 225 Z M 40.23 204.18 L 299.77 204.18 L 214.36 127.48 L 198.21 141.77 C 191.21 147.91 181.2 151.43 170.67 151.43 C 170.6 151.43 170.57 151.43 170.5 151.43 C 159.93 151.4 149.88 147.79 142.92 141.59 L 126.49 126.97 L 40.23 204.18 L 40.23 204.18 Z M 23.7 35.71 L 23.7 189.23 L 109.75 112.14 L 23.7 35.71 L 23.7 35.71 Z M 231.07 112.71 L 316.27 189.23 L 316.27 37.44 L 231.07 112.71 L 231.07 112.71 Z M 40.27 20.82 L 159.76 126.94 C 162.33 129.24 166.28 130.58 170.57 130.58 C 170.6 130.58 170.6 130.58 170.63 130.58 C 174.85 130.58 178.87 129.27 181.37 127.06 L 301.62 20.82 L 40.27 20.82 L 40.27 20.82 Z" fill="#003333" stroke="none" pointer-events="all"/></g></svg>